<?xml version="1.0" standalone="no"?><!DOCTYPE svg PUBLIC "-//W3C//DTD SVG 1.1//EN" "http://www.w3.org/Graphics/SVG/1.1/DTD/svg11.dtd"><svg class="icon" width="200px" height="200.00px" viewBox="0 0 1024 1024" version="1.1" xmlns="http://www.w3.org/2000/svg"><path d="M959.515337 512 959.515337 512c0-247.156076-200.35926-447.515337-447.515337-447.515337l0 0 0 0 0 0 0 0c-247.156076 0-447.515337 200.35926-447.515337 447.515337l0 0 0 0 0 0 0 0c0 247.155053 200.357214 447.51329 447.511243 447.515337 0.001023 0 0.00307 0 0.004093 0l0 0c0.001023 0 0.00307 0 0.004093 0C759.158123 959.51329 959.515337 759.155053 959.515337 512L959.515337 512 959.515337 512 959.515337 512zM940.303786 481.83191c-4.294816-2.025123-9.080819-3.165086-14.121626-3.165086L820.21471 478.666824c-15.459087-144.579863-130.301671-259.422448-274.881534-274.881534L545.333176 97.81784c0-5.040806-1.139963-9.826809-3.165086-14.121626C755.250116 98.487082 925.512918 268.749884 940.303786 481.83191zM478.666824 325.447187c-77.927837 13.829983-139.388631 75.2918-153.219637 153.219637l-78.68099 0c15.049764-120.972189 110.928439-216.850863 231.900627-231.900627L478.666824 325.447187zM325.447187 545.333176c13.829983 77.927837 75.2918 139.388631 153.219637 153.219637l0 78.68099C357.694635 762.184039 261.814937 666.305365 246.766197 545.333176L325.447187 545.333176zM545.333176 698.55179c77.927837-13.829983 139.388631-75.2918 153.219637-153.219637l78.68099 0c-15.049764 120.972189-110.928439 216.850863-231.900627 231.900627L545.333176 698.55179zM698.552813 478.666824c-13.829983-77.927837-75.2918-139.388631-153.219637-153.219637l0-78.68099c120.972189 15.049764 216.850863 110.928439 231.900627 231.900627L698.552813 478.666824zM481.83191 83.696214c-2.026146 4.294816-3.165086 9.080819-3.165086 14.121626l0 105.968473C334.086961 219.244376 219.244376 334.086961 203.78529 478.666824L97.81784 478.666824c-5.040806 0-9.826809 1.139963-14.121626 3.165086C98.487082 268.749884 268.749884 98.487082 481.83191 83.696214zM83.696214 542.16809c4.294816 2.025123 9.080819 3.165086 14.121626 3.165086L203.78529 545.333176c15.459087 144.579863 130.301671 259.422448 274.881534 274.881534l0 105.968473c0 5.040806 1.139963 9.826809 3.165086 14.121626C268.749884 925.512918 98.487082 755.250116 83.696214 542.16809zM542.16809 940.303786c2.026146-4.294816 3.165086-9.080819 3.165086-14.121626L545.333176 820.21471C689.913039 804.755624 804.755624 689.913039 820.21471 545.333176l105.968473 0c5.040806 0 9.826809-1.139963 14.121626-3.165086C925.512918 755.250116 755.250116 925.512918 542.16809 940.303786z" /></svg>