<?xml version="1.0" standalone="no"?><!DOCTYPE svg PUBLIC "-//W3C//DTD SVG 1.1//EN" "http://www.w3.org/Graphics/SVG/1.1/DTD/svg11.dtd"><svg class="icon" width="200px" height="200.00px" viewBox="0 0 1024 1024" version="1.1" xmlns="http://www.w3.org/2000/svg"><path d="M634.092308 517.435077H351.271385c-19.298462 0-35.643077 14.651077-36.194462 33.28-0.551385 19.337846 15.556923 35.209846 35.446154 35.209846h282.781538c19.298462 0 35.643077-14.651077 36.233847-33.28 0.512-19.298462-15.556923-35.209846-35.446154-35.209846z m0 142.729846H351.271385c-19.298462 0-35.643077 14.611692-36.194462 33.240615-0.551385 19.337846 15.556923 35.209846 35.446154 35.209847h282.781538c19.337846 0 35.682462-14.611692 36.233847-33.240616 0.512-19.377231-15.556923-35.209846-35.446154-35.209846z m0-286.011077H351.271385c-19.298462 0-35.643077 14.611692-36.155077 33.240616-0.551385 19.337846 15.517538 35.209846 35.446154 35.209846h282.781538c19.298462 0 35.643077-14.572308 36.194462-33.240616 0.512-19.337846-15.556923-35.209846-35.446154-35.209846zM914.628923 19.692308H109.371077C70.734769 19.692308 39.384615 50.727385 39.384615 89.009231v281.048615c0 38.715077 31.980308 70.419692 71.089231 70.419692H215.433846v502.468924c0 33.870769 27.726769 61.361231 61.912616 61.36123h118.823384c7.364923 0 14.572308-2.284308 20.558769-6.537846l73.728-52.145231a26.742154 26.742154 0 0 1 31.350154 0.393847l69.041231 51.278769a35.603692 35.603692 0 0 0 21.228308 7.010461h125.755077c34.185846 0 61.912615-27.490462 61.912615-61.36123V440.477538h114.884923c38.636308 0 69.986462-31.035077 69.986462-69.316923V89.009231A69.710769 69.710769 0 0 0 914.628923 19.692308zM729.009231 934.203077h-96.295385a26.702769 26.702769 0 0 1-15.911384-5.277539l-88.772924-65.96923a35.643077 35.643077 0 0 0-41.747692-0.512l-94.523077 66.835692a26.702769 26.702769 0 0 1-15.36 4.883692h-90.190769V229.730462h442.761846v704.43323z m182.862769-563.672615h-112.088615V229.730462c0-38.754462-31.704615-70.104615-70.774154-70.104616H286.168615c-39.069538 0-70.734769 31.350154-70.734769 70.104616v140.839384H109.568V91.766154h802.264615v278.724923z" /></svg>