<?xml version="1.0" standalone="no"?><!DOCTYPE svg PUBLIC "-//W3C//DTD SVG 1.1//EN" "http://www.w3.org/Graphics/SVG/1.1/DTD/svg11.dtd"><svg class="icon" width="200px" height="200.00px" viewBox="0 0 1024 1024" version="1.1" xmlns="http://www.w3.org/2000/svg"><path d="M369.2 861.1c-62.7 0-113.7-51-113.7-113.7s51-113.7 113.7-113.7 113.7 51 113.7 113.7-51 113.7-113.7 113.7z m0-186c-39.9 0-72.4 32.5-72.4 72.4 0 39.9 32.5 72.4 72.4 72.4s72.4-32.5 72.4-72.4c0-40-32.5-72.4-72.4-72.4z" fill="#2B2B2B" /><path d="M160.2 772.1c-34.4 0-62.2-27.8-62.2-62V227.7c0-34.2 27.8-62 62-62l391.1-1.1c34.2 0 62 27.8 62 62V709c0 34.2-27.8 62-62 62H440.8l0.8-23.3c0-40.2-32.4-72.6-72.3-72.6s-72.4 32.5-72.4 72.4l0.1 2.3 0.7 21.1-137.5 1.2z m390.9-566.2l-391 1.1c-11.5 0-20.7 9.3-20.7 20.7v482.4c0 11.4 9.3 20.7 20.7 20.7l96.8-0.9c8.5-54.4 55.6-96.1 112.4-96.1 56.7 0 103.8 41.7 112.3 96h69.6c11.4 0 20.7-9.3 20.7-20.7V226.6c-0.1-11.4-9.4-20.7-20.8-20.7zM760 861.1c-62.7 0-113.7-51-113.7-113.7s51-113.7 113.7-113.7 113.7 51 113.7 113.7-51 113.7-113.7 113.7z m0-186c-39.9 0-72.4 32.5-72.4 72.4 0 39.9 32.5 72.4 72.4 72.4s72.4-32.5 72.4-72.4c-0.1-40-32.5-72.4-72.4-72.4z" fill="#2B2B2B" /><path d="M865.8 771h-34.2l0.8-23.3c0-40.2-32.4-72.6-72.3-72.6s-72.4 32.5-72.4 72.4c0 16.5-13.1 20.2-25.3 21.5l0.1 2.1h-28.8c-34.2 0-62-27.8-62-62V380c0-34.2 27.8-62 62-62h182.7c30.5 0 56.1 21.7 61.1 51.7L928 567.4l-0.7 134.1c2.1 17.3-3.1 34.7-14.6 48-11.7 13.7-28.9 21.5-46.9 21.5zM633.5 359.3c-11.4 0-20.7 9.3-20.7 20.7v329c0 11.4 9.3 20.7 20.7 20.7h6.7c2.6-0.5 5.2-0.8 7.7-1 9-53.8 55.9-94.9 112.2-94.9 56.3 0 103.2 41.2 112.2 95 3.6-1.1 6.7-3.3 9.3-6.2 4-4.6 5.7-10.5 4.8-16.6l-0.2-1.6 0.7-131.8-50-195.6c-1.5-10.2-10.1-17.6-20.4-17.6h-183z" fill="#2B2B2B" /><path d="M882.8 554.8h-137c-22.8 0-41.3-21.2-41.3-47.2V444c0-26 18.5-47.2 41.3-47.2h137v41.3H747.3c-0.7 1-1.5 3-1.5 5.8v63.6c0 2.8 0.9 4.9 1.5 5.8h135.5v41.5z" fill="#2B2B2B" /></svg>